<?xml version="1.0" encoding="iso-8859-1"?>
<!-- Uploaded to: SVG Repo, www.svgrepo.com, Generator: SVG Repo Mixer Tools -->
<svg height="800px" width="800px" version="1.1" id="Layer_1" xmlns="http://www.w3.org/2000/svg" xmlns:xlink="http://www.w3.org/1999/xlink" 
	 viewBox="0 0 511.582 511.582" xml:space="preserve">
<g>
	<path style="fill:#39493F;" d="M114.55,0.002h282.483v413.934c0,6.091-3.134,11.75-8.298,14.98l-108.562,75.052
		c-14.671,10.152-34.092,10.152-48.764,0l-108.562-75.052c-5.164-3.231-8.298-8.889-8.298-14.98V0.002z"/>
	<g>
		<path style="fill:#F8D832;" d="M291.102,440.959c0-19.5-15.81-35.31-35.31-35.31s-35.31,15.81-35.31,35.31
			c0,19.5,15.81,35.31,35.31,35.31S291.102,460.459,291.102,440.959"/>
		<path style="fill:#F8D832;" d="M397.033,87.962l-141.241,88.276L114.55,87.962V34.996l141.241,88.276l141.241-88.276V87.962z"/>
		<path style="fill:#F8D832;" d="M397.033,185.065l-141.241,88.276L114.55,185.065V132.1l141.241,88.276L397.033,132.1V185.065z"/>
		<path style="fill:#F8D832;" d="M397.033,282.168l-141.241,88.276L114.55,282.168v-52.965l141.241,88.276l141.241-88.276V282.168z"
			/>
	</g>
	<g>
		<path style="fill:#5E7767;" d="M114.55,282.168v131.769c0,6.091,3.134,11.75,8.298,14.972l44.668,30.888V315.272L114.55,282.168z"
			/>
		<path style="fill:#5E7767;" d="M344.067,459.795l44.668-30.879c5.164-3.231,8.298-8.889,8.298-14.972V282.166l-52.966,33.103
			V459.795z"/>
		<path style="fill:#5E7767;" d="M114.55,185.065v44.138l52.966,33.103v-44.138L114.55,185.065z"/>
		<path style="fill:#5E7767;" d="M344.067,262.306l52.966-33.103v-44.138l-52.966,33.103V262.306z"/>
		<path style="fill:#5E7767;" d="M167.515,0H114.55v34.993l52.966,33.103V0z"/>
		<path style="fill:#5E7767;" d="M114.55,87.962V132.1l52.966,33.103v-44.138L114.55,87.962z"/>
		<path style="fill:#5E7767;" d="M344.067,165.203l52.966-33.103V87.962l-52.966,33.103V165.203z"/>
		<path style="fill:#5E7767;" d="M344.067,0v68.096l52.966-33.103V0H344.067z"/>
	</g>
</g>
</svg>